PathFileType	4	(X/Y/Z)	C:\Users\Basilio\Documents\Thesis Gigler\squatting_fais\c3dfiles\041\SLS_pre_front4\markers_experimental.trc
DataRate	CameraRate	NumFrames	NumMarkers	Units	OrigDataRate	OrigDataStartFrame	OrigNumFrames
200.000000	200.000000	4	63	mm	200.000000	172	1381
Frame#	Time	FHD			LBHD			RBHD			C7			T10			CLAV			LSHO			LUUPA			LMUPA			LDUPA			LLEP			LMEP			LRAD			LUL			LRFIN			RSHO			RUPA1			RMUPA			RDUPA			RLEP			RMEP			RRAD			RUL			RUFIN			LASI			RASI			USACR			RSACR			LTHI1			LTHI2			LTHI3			LTHI4			LLFC			LMFC			LTIB1			LTIB2			LTIB3			LTIB4			LLMAL			LMMAL			LHEE			LMT1			LMT2			LMT5			RTHI			RTHI2			RTHI3			RTHI4			RLFC			RMFC			RTIB1			RTIB2			RTIB3			RTIB4			RLMAL			RMMAL			RHEE			RMT1			RMT2			RMT5			LSACR			*61			*62			
		X1	Y1	Z1	X2	Y2	Z2	X3	Y3	Z3	X4	Y4	Z4	X5	Y5	Z5	X6	Y6	Z6	X7	Y7	Z7	X8	Y8	Z8	X9	Y9	Z9	X10	Y10	Z10	X11	Y11	Z11	X12	Y12	Z12	X13	Y13	Z13	X14	Y14	Z14	X15	Y15	Z15	X16	Y16	Z16	X17	Y17	Z17	X18	Y18	Z18	X19	Y19	Z19	X20	Y20	Z20	X21	Y21	Z21	X22	Y22	Z22	X23	Y23	Z23	X24	Y24	Z24	X25	Y25	Z25	X26	Y26	Z26	X27	Y27	Z27	X28	Y28	Z28	X29	Y29	Z29	X30	Y30	Z30	X31	Y31	Z31	X32	Y32	Z32	X33	Y33	Z33	X34	Y34	Z34	X35	Y35	Z35	X36	Y36	Z36	X37	Y37	Z37	X38	Y38	Z38	X39	Y39	Z39	X40	Y40	Z40	X41	Y41	Z41	X42	Y42	Z42	X43	Y43	Z43	X44	Y44	Z44	X45	Y45	Z45	X46	Y46	Z46	X47	Y47	Z47	X48	Y48	Z48	X49	Y49	Z49	X50	Y50	Z50	X51	Y51	Z51	X52	Y52	Z52	X53	Y53	Z53	X54	Y54	Z54	X55	Y55	Z55	X56	Y56	Z56	X57	Y57	Z57	X58	Y58	Z58	X59	Y59	Z59	X60	Y60	Z60	X61	Y61	Z61	X62	Y62	Z62	X63	Y63	Z63	

173	0.86	-281.6089477539063	1781.009643554688	-1090.78369140625	-452.6726379394532	1700.19287109375	-1165.833984375	-432.4678955078126	1704.250854492188	-1014.412292480469	-479.8200073242189	1545.601684570313	-1098.460205078125	-472.9628295898439	1230.4384765625	-1078.9296875	-317.9232482910157	1503.242797851563	-1108.484741210938	-416.9335327148439	1554.71142578125	-1251.725463867188	-308.5915222167969	1499.678344726563	-1375.616577148438	-263.8530578613282	1515.839233398438	-1361.272583007813	-251.4263916015626	1486.090087890625	-1413.58837890625	-206.4223785400391	1477.420654296875	-1431.276245117188	-179.6217498779297	1407.313110351563	-1389.900146484375	77.83027648925783	1464.502685546875	-1421.801025390625	58.40940856933595	1466.267578125	-1491.829956054688	138.8533782958985	1506.0380859375	-1434.634399414063	-387.3080444335939	1566.035522460938	-960.8579101562502	-264.0762329101563	1499.25244140625	-818.9165649414065	-234.6441040039063	1531.251831054688	-843.6265869140627	-196.3929138183594	1511.488037109375	-803.3115844726565	-150.7227020263672	1510.81591796875	-793.0525512695315	-137.8807220458985	1431.268798828125	-828.805358886719	108.2107391357422	1485.658569335938	-869.4771728515627	113.4489135742188	1493.900146484375	-794.7833251953127	182.9613952636719	1505.929443359375	-881.1281738281252	-286.3809509277344	1052.935668945313	-1182.611328125	-289.9267578125001	1067.633422851563	-955.8232421875002	-471.4884033203126	1114.7841796875	-1073.2490234375	-486.2271728515626	1089.546875	-1043.458129882813	-375.5756835937501	829.071228027344	-1228.06494140625	-328.5732727050782	758.7783203125001	-1219.415893554688	-281.9082336425782	769.7581787109377	-1212.460571289063	-348.0536193847657	702.7933959960939	-1202.962280273438	-309.4050292968751	530.4486083984376	-1171.010009765625	-294.6806335449219	522.8323364257814	-1053.164916992188	-290.4123229980469	343.6285400390626	-1100.284912109375	-347.3562622070313	299.3842773437501	-1155.5205078125	-307.8680419921876	295.3008422851563	-1131.595336914063	-314.5115661621094	221.4894409179688	-1090.317016601563	-385.4254455566407	128.1637115478516	-1116.938842773438	-342.9394836425782	142.7596435546875	-1039.087036132813	-448.2322998046876	115.6765213012696	-1067.964111328125	-241.677719116211	69.6708221435547	-1044.684814453125	-234.877670288086	60.04249954223634	-1089.611083984375	-285.3351440429688	39.47278594970704	-1139.557495117188	-297.1825866699219	813.4364013671877	-857.4072265625002	-239.0050048828126	782.3645629882815	-859.3936767578127	-211.6618041992188	796.3024902343752	-869.4446411132815	-230.4322509765626	697.6502685546876	-859.9010009765627	-186.9268493652344	583.2781982421876	-850.0291748046877	-163.9167175292969	558.5927124023439	-963.7115478515627	-129.4242095947266	422.9121704101564	-839.7911376953127	-202.1800994873047	338.1248474121094	-821.5144042968752	-155.2775421142578	341.7275085449219	-820.2540283203127	-124.8779602050782	295.4014282226563	-841.595642089844	-166.8543395996094	173.975570678711	-818.4483032226565	-133.687744140625	186.1869201660157	-897.556091308594	-216.8576965332032	125.7063293457032	-870.230163574219	-1.101915836334229	133.7779541015625	-864.1989746093752	-0.3543132245540619	146.3204650878907	-812.7068481445315	-45.98047256469727	125.3407058715821	-767.3018798828126	-483.7347412109376	1085.711303710938	-1097.848876953125	-4216.542968750001	853.0717773437502	-3944.820556640626	nan	nan	nan	
174	0.865	-281.3484497070313	1780.771606445313	-1090.907958984375	-452.5335998535157	1700.241455078125	-1166.263793945313	-432.5323181152345	1704.227783203125	-1014.745666503906	-480.1212158203126	1545.931762695313	-1098.9130859375	-472.8778076171876	1230.420776367188	-1079.310668945313	-317.8125000000001	1503.21923828125	-1108.802612304688	-416.6788024902345	1554.779296875	-1252.004516601563	-308.5010375976563	1500.362915039063	-1376.021362304688	-263.6724243164063	1516.6591796875	-1361.689331054688	-251.3433685302735	1487.031005859375	-1413.989868164063	-206.1677246093751	1478.378662109375	-1431.648681640625	-178.8900604248047	1408.486450195313	-1390.61767578125	77.77945709228517	1466.861450195313	-1422.182495117188	58.54537582397462	1468.487426757813	-1492.526123046875	138.7936401367188	1508.345336914063	-1435.266357421875	-387.4629821777345	1566.19970703125	-961.3981933593752	-263.9213867187501	1500.475708007813	-819.463073730469	-234.6590270996094	1532.363525390625	-844.2878417968752	-196.2803497314454	1512.997436523438	-803.8752441406252	-150.8374481201172	1512.436157226563	-793.6428833007815	-137.4593353271485	1433.055908203125	-829.1848144531252	108.5249176025391	1487.889892578125	-869.959655761719	113.582992553711	1496.636108398438	-795.3227539062502	182.9884948730469	1508.671142578125	-881.6265258789065	-286.2653198242188	1052.955078125	-1182.773681640625	-289.8310852050782	1067.779418945313	-956.0303344726565	-471.4039611816407	1114.78125	-1073.495361328125	-486.0911865234376	1089.54052734375	-1043.70556640625	-375.6105957031251	829.1048583984377	-1228.113037109375	-328.5317993164063	758.8038940429689	-1219.5361328125	-281.8702392578126	769.7307128906252	-1212.642456054688	-347.9814758300782	702.8558959960939	-1203.02685546875	-309.4428100585938	530.4733276367189	-1171.139770507813	-294.3038024902344	522.7598266601564	-1053.381958007813	-290.3159179687501	343.6122741699219	-1100.434204101563	-347.4297485351563	299.4233398437501	-1155.57958984375	-307.5676879882813	295.4878845214844	-1131.927978515625	-314.4725341796876	221.5052185058594	-1090.398193359375	-385.4121704101564	128.1800231933594	-1116.972290039063	-342.8924560546876	142.7125091552735	-1038.938110351563	-448.2406005859376	115.7688522338867	-1067.982177734375	-241.6381988525391	69.66457366943361	-1044.776977539063	-234.9394073486329	59.97873687744142	-1089.673828125	-285.4224548339844	39.45501327514649	-1139.555786132813	-296.7398071289063	813.7060546875002	-857.468688964844	-238.4173583984376	782.742858886719	-859.632263183594	-211.2232818603516	796.745544433594	-869.6041259765627	-229.6567077636719	698.1165771484376	-860.127624511719	-185.4552612304688	583.6579589843751	-850.2346801757815	-162.9243621826172	558.9746704101564	-964.134216308594	-125.9393692016602	423.8218383789064	-840.4077758789065	-197.4749298095704	338.0322265625001	-821.1369628906252	-150.5499572753907	342.3819885253907	-820.5924072265627	-119.2915725708008	296.4799499511719	-842.137878417969	-159.4972534179688	174.206527709961	-818.833190917969	-127.1910018920899	186.9874725341797	-897.953063964844	-209.6438751220704	125.5744171142578	-869.747253417969	5.896636009216309	136.2542266845703	-866.2813720703127	7.593615531921388	148.6973876953125	-814.867858886719	-37.53328323364259	127.1939010620117	-768.8972167968752	-483.6304626464845	1085.73388671875	-1098.100219726563	-4216.638183593751	853.0614013671877	-3944.745117187501	nan	nan	nan	
175	0.87	-281.2982177734376	1780.812377929688	-1091.227294921875	-452.3853454589845	1700.259521484375	-1166.692626953125	-432.5179138183595	1704.22607421875	-1015.087707519531	-479.989959716797	1545.94677734375	-1099.306884765625	-472.7833251953126	1230.494262695313	-1079.595703125	-317.7692260742188	1503.177734375	-1109.08935546875	-416.5059509277345	1554.81640625	-1252.285888671875	-308.2257385253907	1501.009765625	-1376.465087890625	-263.5981445312501	1517.406982421875	-1362.080810546875	-251.1936950683594	1487.95361328125	-1414.477783203125	-205.9455261230469	1479.376831054688	-1432.286865234375	-178.8629302978516	1409.417846679688	-1390.981567382813	78.35013580322267	1468.909423828125	-1423.046752929688	58.87006759643556	1470.913452148438	-1493.508056640625	138.8077087402344	1510.806518554688	-1435.933471679688	-387.5603332519532	1566.415771484375	-961.9348754882815	-263.9188842773438	1501.407348632813	-819.9450683593752	-234.7379608154297	1533.474365234375	-844.9086914062502	-196.0767517089844	1514.17626953125	-804.7670898437502	-150.9692993164063	1514.028930664063	-794.0816650390627	-137.0114898681641	1434.527099609375	-829.5391235351565	108.6458053588867	1490.60693359375	-870.4982910156252	113.7208709716797	1499.425170898438	-795.816589355469	183.2309112548828	1511.510498046875	-882.2692871093752	-286.1758728027344	1052.977783203125	-1182.998901367188	-289.7387695312501	1067.915649414063	-956.2177734375002	-471.335418701172	1114.817260742188	-1073.781005859375	-485.9356689453126	1089.594116210938	-1043.875366210938	-375.6943969726563	829.068054199219	-1228.159423828125	-328.4948730468751	758.8021240234376	-1219.638061523438	-281.8061828613282	769.7294921875002	-1212.763427734375	-348.0204162597657	702.8439941406251	-1203.079833984375	-309.4064636230469	530.4600830078126	-1171.186157226563	-293.9306945800782	522.7541503906251	-1053.571044921875	-290.2711486816407	343.5527038574219	-1100.546264648438	-347.4576721191407	299.4185180664063	-1155.682250976563	-307.7775573730469	294.9309082031251	-1131.880249023438	-314.3851928710938	221.464584350586	-1090.529174804688	-385.3907165527345	128.2049713134766	-1117.027587890625	-342.8404541015626	142.6838989257813	-1038.988159179688	-448.267303466797	115.7932510375977	-1067.97216796875	-241.5781860351563	69.62635803222658	-1044.856323242188	-234.9075317382813	59.94840621948244	-1089.706298828125	-285.4172363281251	39.41116333007813	-1139.587646484375	-296.2832946777344	813.940368652344	-857.5578613281252	-237.8427734375001	783.159851074219	-859.7673950195315	-210.7806396484376	797.2767333984377	-869.878845214844	-229.0355834960938	698.5003662109376	-860.276306152344	-184.1308135986328	584.0342407226564	-850.4661865234377	-161.9486694335938	559.4508056640626	-964.5260009765627	-122.282829284668	424.9006652832032	-841.009704589844	-192.5087280273438	338.1855773925782	-821.3300781250002	-145.7020416259766	343.1907653808594	-821.2174072265627	-114.0963821411133	297.5089416503907	-842.7333984375002	-152.2568969726563	174.765609741211	-818.8892211914065	-120.7337722778321	187.9717712402344	-898.491638183594	-201.8917236328126	125.3151550292969	-869.569274902344	12.29097747802735	139.1808776855469	-867.946228027344	15.24223041534424	151.44384765625	-816.8015136718752	-29.2361240386963	129.4049835205078	-770.3941650390627	-483.5993957519532	1085.714965820313	-1098.261840820313	-4216.903320312501	853.224548339844	-3944.669677734376	nan	nan	nan	
176	0.875	-281.5124816894532	1781.014038085938	-1091.613891601563	-452.2167053222657	1700.268188476563	-1167.1005859375	-432.5906982421876	1704.091552734375	-1015.52783203125	-479.8579711914064	1545.956665039063	-1099.720458984375	-472.7114562988282	1230.56201171875	-1079.874267578125	-317.5415954589844	1503.199829101563	-1109.486694335938	-416.3710937500001	1554.879150390625	-1252.533569335938	-307.8955383300782	1501.503540039063	-1376.797973632813	-263.2824096679688	1518.114135742188	-1362.612548828125	-250.9561920166016	1488.676513671875	-1414.901611328125	-205.6832580566407	1480.380493164063	-1432.697143554688	-178.1100769042969	1410.647094726563	-1391.701049804688	78.55883026123048	1470.681030273438	-1423.69580078125	58.30784988403322	1473.349853515625	-1494.091430664063	138.9154357910157	1513.056274414063	-1436.544067382813	-387.5177307128907	1566.5791015625	-962.5639648437502	-263.7353210449219	1502.568359375	-820.5123291015627	-234.8201141357422	1534.425903320313	-845.452331542969	-195.8887481689454	1515.511596679688	-805.4895629882815	-150.6161499023438	1515.686889648438	-794.7579345703127	-136.6407470703125	1436.095336914063	-829.958679199219	108.8921890258789	1493.032958984375	-870.9665527343752	113.863754272461	1502.1220703125	-796.3032226562502	183.1984100341797	1514.307495117188	-882.693298339844	-286.0421142578126	1052.975952148438	-1183.194213867188	-289.7124023437501	1068.021118164063	-956.3778076171877	-471.2269897460939	1114.834350585938	-1073.987915039063	-485.8525695800782	1089.638793945313	-1044.035888671875	-375.6202392578126	829.069274902344	-1228.1953125	-328.4778442382813	758.8087158203126	-1219.717163085938	-281.7970886230469	769.724548339844	-1212.918823242188	-347.9603881835938	702.8091430664064	-1203.057861328125	-309.4610900878907	530.4519042968751	-1171.304077148438	-293.4183654785157	522.7454833984376	-1053.88427734375	-290.1660156250001	343.5534973144532	-1100.694946289063	-347.4514160156251	299.5857238769532	-1155.666259765625	-307.9246826171876	294.8677368164063	-1131.915283203125	-314.2808227539063	221.4973602294922	-1090.65576171875	-385.4003906250001	128.2069091796875	-1117.062255859375	-342.8091430664063	142.7123413085938	-1039.037963867188	-448.2389221191407	115.8248519897461	-1067.95556640625	-241.5710906982422	69.66527557373048	-1044.925903320313	-234.9194030761719	59.93206787109376	-1089.704833984375	-285.3765869140626	39.29878234863282	-1139.592407226563	-295.7278747558594	814.1872558593752	-857.5697021484377	-237.4485015869141	783.5230102539065	-859.9381103515627	-210.2672271728516	797.722351074219	-870.304626464844	-228.387924194336	699.0752563476564	-860.6614990234377	-182.801986694336	584.4844970703126	-850.7644042968752	-160.9263000488282	559.9359130859376	-964.957458496094	-118.7818374633789	426.2219848632814	-841.602233886719	-187.6260833740235	338.4205627441407	-821.2742919921877	-140.760482788086	344.0217285156251	-821.4307861328127	-108.7683944702149	298.9287719726563	-843.4229125976565	-144.8520812988282	175.3551330566407	-819.1466064453127	-114.5869903564453	189.2727966308594	-898.7480468750002	-194.5505828857422	125.2994384765625	-869.1020507812502	20.01049232482911	142.0039672851563	-869.7575683593752	22.93584442138672	154.2894592285157	-818.711364746094	-20.89828109741211	131.7960052490235	-771.9411621093752	-483.4749755859376	1085.762451171875	-1098.415649414063	-4217.413574218751	853.225280761719	-3944.693359375001	nan	nan	nan	
